<svg xmlns="http://www.w3.org/2000/svg" viewBox="0 0 64 64" width="64" height="64">
  <!-- Body -->
  <ellipse cx="32" cy="38" rx="18" ry="14" fill="#f0ece4"/>
  <!-- Wool texture bumps -->
  <circle cx="20" cy="30" r="7" fill="#e8e2d8"/>
  <circle cx="28" cy="26" r="8" fill="#ece6dc"/>
  <circle cx="37" cy="25" r="8" fill="#e8e2d8"/>
  <circle cx="45" cy="30" r="7" fill="#ece6dc"/>
  <circle cx="42" cy="36" r="6" fill="#e8e2d8"/>
  <circle cx="22" cy="36" r="6" fill="#ece6dc"/>
  <!-- Head -->
  <ellipse cx="20" cy="40" rx="9" ry="8" fill="#d4c9b8"/>
  <!-- Eye -->
  <circle cx="17" cy="38" r="1.5" fill="#333"/>
  <circle cx="17.5" cy="37.5" r="0.5" fill="#fff"/>
  <!-- Nose -->
  <ellipse cx="13" cy="43" rx="3" ry="2" fill="#c4b9a8"/>
  <circle cx="12" cy="43" r="0.7" fill="#a09080"/>
  <circle cx="14" cy="43" r="0.7" fill="#a09080"/>
  <!-- Ear -->
  <ellipse cx="28" cy="38" rx="3" ry="5" fill="#d4c9b8" transform="rotate(-20 28 38)"/>
  <!-- Legs -->
  <rect x="21" y="49" width="5" height="10" rx="2" fill="#d4c9b8"/>
  <rect x="29" y="50" width="5" height="9" rx="2" fill="#d4c9b8"/>
  <rect x="37" y="50" width="5" height="9" rx="2" fill="#d4c9b8"/>
  <rect x="45" y="49" width="5" height="10" rx="2" fill="#d4c9b8"/>
  <!-- Horn -->
  <path d="M24 33 Q20 24 26 22 Q28 28 24 33" fill="#c8b89a"/>
  <!-- Crescent moon accent -->
  <path d="M50 8 A8 8 0 1 1 50 24 A5 5 0 1 0 50 8" fill="#c9a227"/>
</svg>
